# xmcd
#
# Track frame offsets: 
#        150
#        13222
#        28687
#        48905
#        60217
#        75875
#        93637
#        107782
#        120352
#        134417
#        149465
#        172420
#        184392
#        197667
#        211820
#        223732
#        241087
#        261845
#        275790
#        293315
#
# Disc length: 4093 seconds
#
# Revision: 1
# Processed by: cddbd v1.5.2PL0 Copyright (c) Steve Scherf et al.
# Submitted via: ExactAudioCopyFreeDBPlugin 1.0
#
DISCID=260ffb14
DTITLE=Irma Thomas - Safe With Me and Irma Thomas Live
DYEAR=1991
DGENRE=Soul
TTITLE0=Looking Back
TTITLE1=Safe with Me
TTITLE2=Woman Left Lonely
TTITLE3=I Can't Help Myself
TTITLE4=Zero Willpower
TTITLE5=Princess LaLa
TTITLE6=Dance Me Down Easy
TTITLE7=Take it Where You Find It
TTITLE8=What's the Matter Baby
TTITLE9=Don't Stop
TTITLE10=Cry On (live)
TTITLE11=Two Winters Long (live)
TTITLE12=Ruler of My Heart (live)
TTITLE13=I Did My Part (live)
TTITLE14=Gone (live)
TTITLE15=I Done Got Over (live)
TTITLE16=It's Raining (live)
TTITLE17=Friendly (live)
TTITLE18=Don't Blame Him (live)
TTITLE19=Break Away (live)
EXTD=
EXTT0=
EXTT1=
EXTT2=
EXTT3=
EXTT4=
EXTT5=
EXTT6=
EXTT7=
EXTT8=
EXTT9=
EXTT10=
EXTT11=
EXTT12=
EXTT13=
EXTT14=
EXTT15=
EXTT16=
EXTT17=
EXTT18=
EXTT19=
PLAYORDER=
